<?xml version="1.0"?>
<svg xmlns="http://www.w3.org/2000/svg" xmlns:xlink="http://www.w3.org/1999/xlink" viewBox="0 0 431.89 432" width="96" height="96"><defs><radialGradient id="d" cx="254.2" cy="259" r="1.4" gradientUnits="userSpaceOnUse"><stop offset=".5"/><stop offset=".7" stop-color="#4e4f50"/><stop offset="1" stop-color="#bbbdbf"/></radialGradient><linearGradient id="e" x1="81.2" y1="234.9" x2="356.4" y2="234.9" gradientUnits="userSpaceOnUse"><stop offset="0" stop-color="#533d45"/><stop offset=".1" stop-color="#5f3c44"/><stop offset=".3" stop-color="#7f3b42"/><stop offset=".4" stop-color="#923a40"/><stop offset=".6" stop-color="#993a40"/><stop offset=".6" stop-color="#8a3a41"/><stop offset=".8" stop-color="#5a3c44"/><stop offset=".9" stop-color="#3d3d45"/><stop offset="1" stop-color="#323d46"/></linearGradient><radialGradient id="a" cx="-432.1" cy="372.3" r="13.1" gradientTransform="matrix(1.14 .6 2.05 -4.5 36.11 2056.83)" gradientUnits="userSpaceOnUse"><stop offset="0" stop-color="#fff"/><stop offset=".7" stop-color="#fff" stop-opacity="0"/></radialGradient><radialGradient id="f" cx="-230.5" cy="579.3" r="13.1" gradientTransform="matrix(.7 .63 2.4 -2.68 -936.38 1826.86)" xlink:href="#a"/><radialGradient id="g" cx="176.3" cy="149.3" r="157.2" gradientUnits="userSpaceOnUse"><stop offset="0" stop-color="#fee900"/><stop offset=".1" stop-color="#fddd04"/><stop offset=".2" stop-color="#fbbe0e"/><stop offset=".4" stop-color="#f78e1e"/><stop offset="1" stop-color="#ee3435"/></radialGradient><linearGradient id="b" x1="122.6" y1="221" x2="209" y2="221" gradientUnits="userSpaceOnUse"><stop offset="0" stop-color="#d43639"/><stop offset="0" stop-color="#d03639"/><stop offset=".3" stop-color="#98393e"/><stop offset=".5" stop-color="#6c3a41"/><stop offset=".7" stop-color="#4c3c44"/><stop offset=".9" stop-color="#393d45"/><stop offset="1" stop-color="#323d46"/></linearGradient><linearGradient id="h" x1="256.1" y1="186.9" x2="313.2" y2="186.9" xlink:href="#b"/><linearGradient id="i" x1="252.9" y1="76" x2="322.2" y2="76" xlink:href="#b"/><linearGradient id="j" x1="11.2" y1="158.6" x2="132.1" y2="158.6" xlink:href="#b"/><radialGradient id="k" cx="253.7" cy="297" r="134.9" gradientUnits="userSpaceOnUse"><stop offset="0" stop-color="#fdea52"/><stop offset=".3" stop-color="#fdde47"/><stop offset=".7" stop-color="#fcc02b"/><stop offset="1" stop-color="#fbab18"/></radialGradient><radialGradient id="l" cx="256.1" cy="317.1" r="131.5" gradientUnits="userSpaceOnUse"><stop offset="0" stop-color="#f78e1e"/><stop offset=".2" stop-color="#f47225"/><stop offset=".6" stop-color="#f1502e"/><stop offset=".8" stop-color="#ef3c33"/><stop offset="1" stop-color="#ee3435"/></radialGradient><radialGradient id="c" cx="288.5" cy="304" r="14.1" gradientUnits="userSpaceOnUse"><stop offset="0" stop-color="#fdea52"/><stop offset=".1" stop-color="#fde34b"/></radialGradient><radialGradient id="m" cx="266.9" cy="284.7" r="42.8" xlink:href="#c"/></defs><title>Artboard 1 copy 3</title><g style="isolation:isolate"><path d="M252.7 258a35.3 35.3 0 0 0 2.8 2l.4-2.2a15.6 15.6 0 0 1-4 0z" fill="url(#d)"/><path d="M356 215c6.3 44.5-49.8 89.3-125.6 100.3S88 299 81.7 254.7s49.8-89.3 125.5-100.2S349.5 170.7 356 215z" fill="url(#e)"/><path d="M320 136.4c14.7-32.5 20-62.3 11.7-66.6s-27 18.7-41.7 51.2-20 62.3-11.8 66.5 27-18.6 41.7-51z" opacity=".4" fill="url(#a)"/><path d="M297.4 140c17.3-19.3 27.2-38.7 22-43.3s-23 7.5-40.4 26.8-27.2 38.7-22 43.3 23-7.5 40.4-26.8z" opacity=".4" fill="url(#f)"/><path d="M340 183.4c-1.6-8.7 8.6-12.8 4-32s-4.7-30.8-10.7-65.7c0 0-3.8-25.4-8.3-41-3.2-11-3-23.5-2.2-30.8a4 4 0 0 0-6-4c-12 6-34.4 22-45 38-13.2 19-24.8 32-30.3 52-3.6 12-8.7 21-10.8 26a4 4 0 0 1-4.4 2c-11.4-2-23.6-2-35.3 1a116.7 116.7 0 0 0-47 23 4 4 0 0 1-4 0c-5.5-2-14.2-4.8-24.7-10.8-18-10-35.4-11.3-58.5-15.8-20-4-34.6-4-48.3-7.6a4 4 0 0 0-5 5C6 134 10 148 14 158c5.8 14.5 24.3 38.4 25.5 40C60 227 63 237.4 73 254.3s27.5 12 32.6 19.3c2.5 3.6 2 6.5.5 8.5a4 4 0 0 0 2 6c3 2 7 2 10-1 3-2 6-12 11-25a4 4 0 0 1 2-2c10-4 28-12 45-16 15-4 24 0 30 5a4 4 0 0 0 7-3c0-9-1-19 1-20 2 0 7 9 10 15a4 4 0 0 0 7 1 65 65 0 0 1 29-21 58 58 0 0 1 13-3 4 4 0 0 0 2-7c-3-2.3-6-5-7-7-1.7-2.3 13 3 22 6a4 4 0 0 0 5.6-4c-.2-4.4.4-10.5 4.5-14.5a17 17 0 0 1 1.3-1 4 4 0 0 1 4.5-.7c18 9 33 16.7 38 17s7-4 8-7.6a4 4 0 0 0-2.4-5 9.7 9.7 0 0 1-6.3-8z" fill="url(#g)"/><path d="M208 212.8c-3-7.6-11-10.7-22-21.7-4.2-4 6.4 14-.3 16-1.6 1-14.2 0-29 13-11.2 10-23.8 26-33.3 31-6 4 20.6 0 32.6-12 3-3 5.8-3 13-3 3 0-.3-8 5.3-3 5 5 18 6 23.3 2 9.8-5 13.2-14 10.5-21z" fill="url(#b)"/><path d="M257 196.2c-2.2-5.8.4-10 2.2-24.6.5-4.4 3 6.7 6.6 4 1-.7 4.4-2.5 17.4-3 9.5-.3 22.5 2 29.3 0 4.3-1.2-9.2 11-20.3 10.4-2.8 0-4 1.2-7.3 5.2-2 1.6-4-5-4 1 0 5.6-6 12.6-10 13.6-7 1.8-13-1.3-15-6.6z" fill="url(#h)"/><path d="M322.2 51.6c-1.3-10-7.8-19.6-6.4-29.6a1.6 1.6 0 0 0-2.5-1.6c-23.3 17.2-65 64.6-60 106.8 2 15 35-9.5 49.2-24.2a1.6 1.6 0 0 0-1.4-2.6 13.7 13.7 0 0 1-4-.2 1.6 1.6 0 0 1-1-.6c-3-4.7 9-18 13-22.4a1.6 1.6 0 0 0 1-2c-6-8.8 8-31.8 4-37.2l8 14a.7.7 0 0 0 2-.4z" fill="url(#i)"/><path d="M11.4 130a1.8 1.8 0 0 1 1.8-2.4c32 4.5 94.6 10 118 32 8 7.5-35.6 32-57 29.8a1.3 1.3 0 0 1-.4-2.5 12 12 0 0 0 6-6c0-5-12.8-6-21-6a3.5 3.5 0 0 1-3.2-5c1.8-7-10-5-18.5-10l-1-1a40.7 40.7 0 0 1-20-21z" fill="url(#j)"/><path d="M215 215.7c3.4 8.3-2.7 18.7-13.6 23.2s-22.6 1-26-7 2.6-19 13.6-23 22.6-2 26 6zm71.3-26.3c2.7 6.5-1.6 14.4-9.4 17.7s-17 1-20-5 1-14 9-17 16 0 19 6z" fill="#fee5cf"/><path d="M209.6 217c2.6 6.3-2 14-10.2 17.5s-17 1-19.5-5 2-14 10-17.5 17-1 19 5zm72.4-26.7c2 5-1 11-7 13.3s-12.2.5-14.3-4.4 1.2-10.8 7-13.3 12.4-1 14.4 4z" fill="#121427"/><path d="M417.4 248.2l.7-.2s-17-12.5-47-24.5-57-15.2-66-10.3 9 35 3 30c-6-4.2-9-16.7-25-20.2-13-3-25-5-45 14-8 8-22 60.6-29 45.3-6-11.7-8-56.5-74-8.8-33 24.2-28 71.4-26 82a247 247 0 0 0-24 26.7s50-49 131-19 99-14.6 112-37 25-46.6 58.7-62.7c32-15.5 38.6-13.5 39-13.5 0 0-2.4-1-6.4-2z" fill="url(#k)"/><path d="M241.3 277.4s-17.7 26-31.3 31.6-42 3-60.3 16.8c-37.3 28.4-64 66-64 66s49.3-49.2 131-19 99-14.8 111.7-37 25-46.8 58.5-63 39-13.6 39-13.6-51-19.5-76-16.5-35 9-38 15.4c-10 17-18 22-36 26-24 5-33-13-35-6z" fill="url(#l)"/><path d="M285.2 299.7s12-7.3 18.6-5.3-3.8 13-24 17.8 0 0 5.4-12.5z" fill="url(#c)"/><path d="M244.4 266.3l61.8-11.2c19 10 16 18 3.6 29-10 10-23.8-5-23.8-5s-1.5 17-11 25c-22.4 18-38.4 11-46 7-11.3-5-14.2-5-15-7z" fill="url(#m)"/><path d="M266 229.6c-16.7 4.8-18.4 10.2-22 16-4.8 7.7-11.6 19.7 10.4 26.6 30 9.3 25.7 10.8 36.8-9.6s1.4-27-3.2-29.2c-1.6-.8-11-7-22-3.8z" fill="#121427"/><path d="M243 258.8a35.4 35.4 0 0 1 18.6-24.3c14.8-7.6 29 4.6 29 4.6s-15.8 1-24.4 9-16.4 16-23 11z" fill="#363959" style="mix-blend-mode:screen"/></g></svg>
